<?xml version="1.0" encoding="utf-8"?>
<!-- Generator: Adobe Illustrator 24.0.1, SVG Export Plug-In . SVG Version: 6.00 Build 0)  -->
<svg version="1.1" id="Camada_1" xmlns="http://www.w3.org/2000/svg" xmlns:xlink="http://www.w3.org/1999/xlink" x="0px" y="0px"
	 viewBox="0 0 300 100" style="enable-background:new 0 0 300 100;" xml:space="preserve">
<style type="text/css">
	.st0{fill:url(#SVGID_1_);}
	.st1{fill:url(#SVGID_2_);}
	.st2{fill:url(#SVGID_3_);}
	.st3{fill:url(#SVGID_4_);}
	.st4{fill:url(#SVGID_5_);}
</style>
<g>
	
		<linearGradient id="SVGID_1_" gradientUnits="userSpaceOnUse" x1="-486.4179" y1="549.8577" x2="-485.4179" y2="549.8577" gradientTransform="matrix(189.3811 0 0 -36.465 92222.7266 20098.9336)">
		<stop  offset="0" style="stop-color:#7E7E7E"/>
		<stop  offset="1" style="stop-color:#7E7E7E"/>
	</linearGradient>
	<path class="st0" d="M104.3,66.3V33.8h12.1v3.9h-7.1v9.7h5.5v3.9h-5.5v11.1h7.3v3.9H104.3z M126,66.6L126,66.6
		c-2.2,0-3.9-0.9-5.1-2.7c-1.2-1.8-1.7-4.6-1.7-8.3l0,0v-4.9c0-1.7,0.1-3.1,0.4-4.3c0.2-1.2,0.6-2.2,1-3c0.4-0.8,0.9-1.4,1.4-1.9
		c0.5-0.5,1-0.8,1.6-1.1c0.5-0.2,1.1-0.4,1.6-0.5c0.5-0.1,1-0.1,1.5-0.1l0,0c0.9,0,1.7,0.1,2.4,0.4c0.7,0.2,1.4,0.6,1.9,1.1
		c0.5,0.5,0.9,1.1,1.2,1.8c0.3,0.7,0.4,1.6,0.4,2.6l0,0c0,0.6,0,1.1-0.1,1.6c-0.1,0.4-0.1,0.9-0.2,1.3l0,0h-3.8v-0.9
		c0-1.3-0.2-2.4-0.5-3.1c-0.3-0.7-0.8-1.1-1.5-1.1l0,0c-0.4,0-0.7,0.1-1,0.3c-0.3,0.2-0.5,0.5-0.7,0.9c-0.2,0.4-0.3,1-0.4,1.8
		c-0.1,0.7-0.1,1.7-0.1,2.8l0,0v7.4c0,1.1,0,2.1,0.1,2.9c0.1,0.8,0.2,1.5,0.4,2c0.2,0.5,0.4,0.9,0.8,1.1c0.3,0.2,0.7,0.3,1.2,0.3
		l0,0c0.2,0,0.5-0.1,0.7-0.2c0.2-0.1,0.4-0.3,0.6-0.6c0.2-0.3,0.3-0.7,0.4-1.1c0.1-0.5,0.2-1,0.2-1.7l0,0v-0.8h4.2v1
		c0,2.5-0.5,4.3-1.6,5.4C129.8,66,128.1,66.6,126,66.6z M136.4,66.3V31.7h4.8v6.2l-0.2,4.5c0.4-0.5,0.7-0.9,1.2-1.2
		c0.4-0.3,0.8-0.6,1.3-0.8c0.4-0.2,0.9-0.3,1.3-0.4c0.4-0.1,0.9-0.1,1.3-0.1l0,0c1.5,0,2.7,0.5,3.6,1.6c0.8,1.1,1.2,2.7,1.2,4.8l0,0
		v20.1h-4.8V46.4c0-1.2-0.2-2-0.5-2.4c-0.4-0.4-0.9-0.7-1.6-0.7l0,0c-0.5,0-1,0.2-1.5,0.5c-0.5,0.3-0.9,0.8-1.3,1.3l0,0v21.2H136.4z
		 M162.5,66.6L162.5,66.6c-0.6,0-1.1,0-1.7-0.1c-0.6-0.1-1.1-0.3-1.7-0.6c-0.5-0.3-1-0.7-1.5-1.2c-0.5-0.5-0.9-1.2-1.2-2.1
		c-0.4-0.9-0.6-1.9-0.8-3.1c-0.2-1.2-0.3-2.7-0.3-4.5l0,0v-4.1c0-1.7,0.1-3.2,0.3-4.4c0.2-1.2,0.5-2.2,0.9-3.1
		c0.4-0.8,0.8-1.5,1.3-2c0.5-0.5,1-0.9,1.5-1.1c0.5-0.3,1.1-0.4,1.7-0.5c0.6-0.1,1.1-0.1,1.7-0.1l0,0c0.5,0,1.1,0,1.6,0.1
		c0.6,0.1,1.1,0.2,1.6,0.5s1,0.6,1.5,1.1c0.5,0.5,0.9,1.1,1.3,2c0.4,0.8,0.7,1.8,0.9,3.1c0.2,1.2,0.3,2.7,0.3,4.4l0,0V55
		c0,1.7-0.1,3.2-0.3,4.4c-0.2,1.2-0.5,2.3-0.9,3.1s-0.8,1.5-1.3,2.1c-0.5,0.5-1,0.9-1.5,1.2c-0.5,0.3-1.1,0.5-1.6,0.6
		C163.5,66.5,163,66.6,162.5,66.6z M162.5,62.9L162.5,62.9c0.4,0,0.8-0.1,1.1-0.3c0.3-0.2,0.5-0.6,0.7-1.1s0.3-1.2,0.4-2
		c0.1-0.8,0.1-1.9,0.1-3.1l0,0v-6.5c0-1.2,0-2.3-0.1-3.1c-0.1-0.8-0.2-1.5-0.4-2c-0.2-0.5-0.4-0.9-0.7-1.1c-0.3-0.2-0.7-0.3-1.1-0.3
		l0,0c-0.5,0-0.8,0.1-1.2,0.3c-0.3,0.2-0.6,0.6-0.8,1.1c-0.2,0.5-0.3,1.2-0.4,2c-0.1,0.8-0.1,1.9-0.1,3.1l0,0v6.5
		c0,1.2,0,2.3,0.1,3.1c0.1,0.8,0.2,1.5,0.4,2s0.5,0.9,0.8,1.1C161.7,62.8,162.1,62.9,162.5,62.9z M174.3,66.3V33.8h12.1v3.9h-7.1
		v9.7h5.5v3.9h-5.5v11.1h7.3v3.9H174.3z M188.8,60.8L188.8,60.8c0-0.6,0.1-1.1,0.2-1.7c0.1-0.5,0.2-1,0.3-1.3l0,0h3.4
		c0,1,0,1.7,0.1,2.4c0.1,0.6,0.3,1.2,0.5,1.5c0.2,0.4,0.5,0.7,0.9,0.8c0.4,0.2,0.8,0.2,1.3,0.2l0,0c0.7,0,1.2-0.2,1.6-0.6
		c0.3-0.4,0.5-0.9,0.5-1.4l0,0c0-0.3,0-0.5-0.1-0.8c-0.1-0.3-0.2-0.5-0.3-0.8c-0.1-0.3-0.3-0.5-0.5-0.8c-0.2-0.3-0.4-0.6-0.7-0.9
		l0,0l-3.5-4.1c-0.5-0.6-0.9-1.2-1.3-1.7c-0.4-0.6-0.8-1.2-1.1-1.8c-0.3-0.6-0.6-1.3-0.8-2c-0.2-0.7-0.3-1.4-0.3-2.2l0,0
		c0-1,0.2-1.9,0.5-2.6c0.3-0.7,0.8-1.4,1.4-1.9c0.6-0.5,1.3-0.9,2-1.1c0.8-0.2,1.6-0.4,2.5-0.4l0,0c1,0,1.8,0.1,2.6,0.3
		c0.8,0.2,1.4,0.6,2,1s1,1,1.3,1.7c0.3,0.7,0.4,1.5,0.4,2.4l0,0c0,0.6-0.1,1.2-0.2,1.8c-0.1,0.6-0.2,1.1-0.3,1.5l0,0h-3.3
		c0-0.9-0.1-1.6-0.1-2.3s-0.2-1.2-0.4-1.6c-0.2-0.4-0.4-0.7-0.7-1c-0.3-0.2-0.7-0.3-1.2-0.3l0,0c-0.4,0-0.8,0.1-1,0.2
		c-0.3,0.1-0.5,0.3-0.7,0.5c-0.2,0.2-0.3,0.5-0.4,0.7c-0.1,0.3-0.1,0.5-0.1,0.8l0,0c0,0.6,0.1,1.2,0.4,1.7c0.3,0.5,0.7,1.1,1.2,1.7
		l0,0l3.8,4.5c0.3,0.3,0.6,0.8,1,1.2c0.4,0.5,0.7,1,1,1.6c0.3,0.6,0.6,1.2,0.8,1.9c0.2,0.7,0.3,1.4,0.3,2.2l0,0
		c0,0.9-0.1,1.8-0.4,2.5c-0.3,0.8-0.7,1.4-1.3,1.9c-0.6,0.5-1.3,0.9-2.1,1.2s-1.8,0.4-2.8,0.4l0,0c-0.9,0-1.7-0.1-2.5-0.3
		c-0.8-0.2-1.4-0.5-2-1c-0.6-0.5-1-1-1.4-1.8C188.9,62.8,188.8,61.9,188.8,60.8z M204.5,60.8L204.5,60.8c0-0.6,0.1-1.1,0.2-1.7
		c0.1-0.5,0.2-1,0.3-1.3l0,0h3.4c0,1,0,1.7,0.1,2.4c0.1,0.6,0.3,1.2,0.5,1.5c0.2,0.4,0.5,0.7,0.9,0.8c0.4,0.2,0.8,0.2,1.3,0.2l0,0
		c0.7,0,1.2-0.2,1.6-0.6c0.3-0.4,0.5-0.9,0.5-1.4l0,0c0-0.3,0-0.5-0.1-0.8c-0.1-0.3-0.2-0.5-0.3-0.8c-0.1-0.3-0.3-0.5-0.5-0.8
		c-0.2-0.3-0.4-0.6-0.7-0.9l0,0l-3.5-4.1c-0.5-0.6-0.9-1.2-1.3-1.7c-0.4-0.6-0.8-1.2-1.1-1.8c-0.3-0.6-0.6-1.3-0.8-2
		c-0.2-0.7-0.3-1.4-0.3-2.2l0,0c0-1,0.2-1.9,0.5-2.6c0.3-0.7,0.8-1.4,1.4-1.9c0.6-0.5,1.3-0.9,2-1.1c0.8-0.2,1.6-0.4,2.5-0.4l0,0
		c1,0,1.8,0.1,2.6,0.3c0.8,0.2,1.4,0.6,2,1s1,1,1.3,1.7c0.3,0.7,0.4,1.5,0.4,2.4l0,0c0,0.6-0.1,1.2-0.2,1.8
		c-0.1,0.6-0.2,1.1-0.3,1.5l0,0h-3.3c0-0.9-0.1-1.6-0.1-2.3s-0.2-1.2-0.4-1.6c-0.2-0.4-0.4-0.7-0.7-1c-0.3-0.2-0.7-0.3-1.2-0.3l0,0
		c-0.4,0-0.8,0.1-1,0.2c-0.3,0.1-0.5,0.3-0.7,0.5c-0.2,0.2-0.3,0.5-0.4,0.7c-0.1,0.3-0.1,0.5-0.1,0.8l0,0c0,0.6,0.1,1.2,0.4,1.7
		c0.3,0.5,0.7,1.1,1.2,1.7l0,0l3.8,4.5c0.3,0.3,0.6,0.8,1,1.2c0.4,0.5,0.7,1,1,1.6c0.3,0.6,0.6,1.2,0.8,1.9c0.2,0.7,0.3,1.4,0.3,2.2
		l0,0c0,0.9-0.1,1.8-0.4,2.5c-0.3,0.8-0.7,1.4-1.3,1.9c-0.6,0.5-1.3,0.9-2.1,1.2s-1.8,0.4-2.8,0.4l0,0c-0.9,0-1.7-0.1-2.5-0.3
		c-0.8-0.2-1.4-0.5-2-1c-0.6-0.5-1-1-1.4-1.8C204.7,62.8,204.5,61.9,204.5,60.8z M227.7,66.6L227.7,66.6c-1.1,0-2.1-0.2-3-0.6
		c-0.9-0.4-1.6-1.1-2.2-2c-0.6-0.9-1-2-1.4-3.4c-0.3-1.4-0.5-3.1-0.5-5l0,0v-4.9c0-1.7,0.1-3.1,0.4-4.3c0.2-1.2,0.6-2.2,1-3
		c0.4-0.8,0.9-1.4,1.4-1.9c0.5-0.5,1.1-0.8,1.6-1.1c0.6-0.2,1.1-0.4,1.7-0.5c0.6-0.1,1.1-0.1,1.5-0.1l0,0c0.9,0,1.7,0.1,2.5,0.4
		c0.8,0.3,1.5,0.7,2.1,1.3s1.1,1.5,1.5,2.5c0.4,1.1,0.5,2.4,0.5,3.9l0,0c0,0.5,0,1.1,0,1.6c0,0.5-0.1,1.1-0.1,1.6
		c-0.1,0.5-0.1,1-0.2,1.5c-0.1,0.5-0.2,1-0.3,1.4l0,0h-8.7v2.7c0,1.1,0,2.1,0.1,2.9c0.1,0.8,0.2,1.4,0.4,1.9c0.2,0.5,0.5,0.8,0.9,1
		c0.4,0.2,0.8,0.3,1.4,0.3l0,0c0.3,0,0.6-0.1,0.9-0.2c0.3-0.1,0.5-0.3,0.7-0.6c0.2-0.3,0.4-0.7,0.5-1.1c0.1-0.5,0.2-1,0.2-1.7l0,0
		v-0.8h4v1c0,2.5-0.6,4.3-1.8,5.4C231.6,66,229.9,66.6,227.7,66.6z M225.5,50.9h4.8c0-0.1,0-0.3,0-0.6c0-0.2,0-0.5,0-0.7
		c0-0.3,0-0.5,0-0.8c0-0.2,0-0.5,0-0.6l0,0c0-1.7-0.2-3-0.6-3.7c-0.4-0.8-1-1.1-1.8-1.1l0,0c-0.4,0-0.8,0.1-1.1,0.3
		c-0.3,0.2-0.6,0.5-0.8,1c-0.2,0.5-0.4,1.1-0.5,1.8c-0.1,0.8-0.2,1.7-0.2,2.8l0,0V50.9z M238.9,66.3V40.1h3.7l0.4,2.8v0
		c0.4-0.6,0.8-1.1,1.2-1.5c0.4-0.4,0.9-0.7,1.4-1c0.5-0.2,1-0.4,1.4-0.5c0.5-0.1,1-0.2,1.5-0.2l0,0c1.5,0,2.7,0.5,3.6,1.6
		c0.8,1.1,1.2,2.7,1.2,4.8l0,0v20.1h-4.8V46.4c0-1.2-0.2-2-0.5-2.4s-0.9-0.7-1.6-0.7l0,0c-0.5,0-1,0.2-1.4,0.5
		c-0.5,0.3-0.9,0.8-1.3,1.3l0,0v21.2H238.9z M258.9,59.8V43.5h-2v-3.4h2.5l1-6.8h3.4v6.8h4.2v3.4h-4.2v16.7c0,0.6,0.1,1,0.2,1.4
		c0.1,0.3,0.3,0.6,0.4,0.8c0.2,0.2,0.4,0.3,0.7,0.4c0.3,0.1,0.5,0.1,0.8,0.1l0,0c0.5,0,0.9-0.1,1.2-0.2c0.4-0.1,0.7-0.3,1-0.5l0,0
		v2.7c-0.3,0.3-0.6,0.6-0.9,0.8c-0.3,0.2-0.7,0.4-1,0.5c-0.3,0.1-0.7,0.2-1,0.3c-0.4,0-0.7,0.1-1,0.1l0,0c-0.7,0-1.3-0.1-1.9-0.3
		c-0.6-0.2-1.2-0.5-1.7-1c-0.5-0.5-0.9-1.2-1.2-2.1C259,62.3,258.9,61.2,258.9,59.8L258.9,59.8z M273.8,36.3L273.8,36.3
		c-0.9,0-1.6-0.3-2.1-0.8c-0.5-0.5-0.8-1.3-0.8-2.3l0,0c0-0.6,0.1-1.1,0.2-1.4c0.1-0.4,0.3-0.7,0.6-0.9c0.2-0.2,0.6-0.4,0.9-0.5
		c0.4-0.1,0.8-0.2,1.2-0.2l0,0c1,0,1.7,0.2,2.2,0.7c0.5,0.5,0.7,1.3,0.7,2.3l0,0c0,1-0.3,1.8-0.8,2.3S274.7,36.3,273.8,36.3z
		 M271.3,66.3V40.1h4.8v26.2H271.3z M284.7,66.6L284.7,66.6c-0.8,0-1.5-0.2-2.2-0.5c-0.6-0.3-1.2-0.8-1.6-1.3c-0.4-0.6-0.8-1.2-1-2
		c-0.2-0.8-0.3-1.6-0.3-2.5l0,0c0-1.1,0.1-2,0.4-2.9c0.3-0.8,0.7-1.6,1.2-2.3c0.5-0.7,1.1-1.3,1.9-1.8c0.8-0.6,1.6-1.1,2.6-1.6l0,0
		c0.5-0.2,1-0.5,1.6-0.7c0.6-0.2,1.1-0.5,1.6-0.6l0,0v-3.5c0-0.5,0-1-0.1-1.4c0-0.4-0.1-0.8-0.3-1.1c-0.1-0.3-0.4-0.6-0.7-0.8
		c-0.3-0.2-0.7-0.3-1.2-0.3l0,0c-0.3,0-0.7,0.1-1,0.2c-0.3,0.1-0.6,0.3-0.9,0.6c-0.2,0.3-0.4,0.7-0.6,1.2s-0.2,1.1-0.2,1.9l0,0v1.1
		h-3.7c-0.1-0.5-0.2-0.9-0.3-1.4c-0.1-0.4-0.1-0.8-0.1-1.2l0,0c0-1,0.2-1.8,0.5-2.6c0.3-0.7,0.8-1.4,1.4-1.9
		c0.6-0.5,1.3-0.9,2.2-1.2c0.8-0.3,1.8-0.4,2.8-0.4l0,0c1.3,0,2.4,0.1,3.3,0.4c0.9,0.3,1.6,0.7,2.1,1.3c0.5,0.6,0.9,1.3,1.1,2.1
		c0.2,0.9,0.3,1.9,0.3,3l0,0v19.6h-3.6l-0.3-2.2c-0.5,0.7-1.2,1.4-2.1,1.8C286.8,66.4,285.9,66.6,284.7,66.6z M286.9,62.9
		L286.9,62.9c0.4,0,0.8-0.1,1.2-0.3c0.4-0.2,0.7-0.5,1-0.8l0,0v-8.2c-0.3,0.1-0.5,0.2-0.9,0.4s-0.7,0.3-1,0.6l0,0
		c-0.3,0.2-0.7,0.5-1,0.8s-0.6,0.7-0.9,1.1c-0.3,0.4-0.5,0.9-0.6,1.4s-0.2,1.1-0.2,1.8l0,0c0,1,0.2,1.8,0.6,2.4
		C285.4,62.6,286,62.9,286.9,62.9z"/>
</g>
<g>
	
		<linearGradient id="SVGID_2_" gradientUnits="userSpaceOnUse" x1="-153.45" y1="443.0414" x2="-152.45" y2="443.0414" gradientTransform="matrix(100 0 0 -100 15345 44355)">
		<stop  offset="0" style="stop-color:#419A1C"/>
		<stop  offset="1" style="stop-color:#419A1C"/>
	</linearGradient>
	<circle class="st1" cx="50" cy="50.9" r="50"/>
</g>
<g>
	
		<linearGradient id="SVGID_3_" gradientUnits="userSpaceOnUse" x1="-152.1756" y1="441.483" x2="-151.2009" y2="441.483" gradientTransform="matrix(55.04 0 0 -68.1777 8398.9219 30155.3535)">
		<stop  offset="0" style="stop-color:#FFFFFF"/>
		<stop  offset="1" style="stop-color:#FFFFFF"/>
	</linearGradient>
	<path class="st2" d="M33.9,22.8c0,0-2.2,0-2.2,0c-4.7,0-8.6,3.6-8.6,8.1v50.1c0,4.5,3.8,8.1,8.6,8.1h36.5c4.7,0,8.6-3.6,8.6-8.1V31
		c0-4.5-3.8-8.1-8.6-8.1c0,0-2.2,0-2.2,0C66.1,22.8,33.9,22.8,33.9,22.8z M68.3,31v50.1H31.7V31H68.3z"/>
</g>
<g>
	
		<linearGradient id="SVGID_4_" gradientUnits="userSpaceOnUse" x1="-150.6278" y1="420.3095" x2="-149.761" y2="420.3095" gradientTransform="matrix(36 0 0 -13.108 5457 5525.168)">
		<stop  offset="0" style="stop-color:#FFFFFF"/>
		<stop  offset="1" style="stop-color:#FFFFFF"/>
	</linearGradient>
	<path class="st3" d="M65.6,17.4c0-4-2.3-7.3-6.3-7.3c0,0-1.8,0-1.8,0L44,10.2c0,0-2.2,0-2.2,0c-3.9,0-7.4,3.1-7.4,6.9v4.3h31.2
		V17.4z"/>
</g>
<g>
	
		<linearGradient id="SVGID_5_" gradientUnits="userSpaceOnUse" x1="-145.1028" y1="438.7608" x2="-144.1281" y2="438.7608" gradientTransform="matrix(15.7224 0 0 -44.1226 2323.7039 19415.334)">
		<stop  offset="0" style="stop-color:#FFFFFF"/>
		<stop  offset="1" style="stop-color:#FFFFFF"/>
	</linearGradient>
	<path class="st4" d="M49,34.6c0,0,1.8,4.2-3.5,13c-4.2,7.1-4.5,14.3,0.9,19.2c0.4,0.3,0.8,0.6,1.2,0.9c0.3,0.1,0.5,0.2,0.8,0.3
		c0,0-1.8,4.1-4,5.9c0,0.1-0.1,0.1-0.1,0.1s-1.8,7.5,2.3,0.7c0.1-0.2,0.3-0.5,0.4-0.7c0-0.1,0.1-0.1,0.1-0.2
		c0.1-0.2,0.2-0.4,0.3-0.6c0-0.1,0.1-0.1,0.1-0.2c0.1-0.2,0.2-0.4,0.3-0.6c0-0.1,0.1-0.2,0.1-0.2c0.1-0.2,0.2-0.4,0.3-0.5
		c0-0.1,0.1-0.1,0.1-0.2c0.1-0.2,0.2-0.4,0.3-0.6c0-0.1,0.1-0.1,0.1-0.2c0.1-0.2,0.2-0.4,0.3-0.6c0-0.1,0.1-0.1,0.1-0.2
		c0.1-0.2,0.2-0.4,0.2-0.6c0-0.1,0.1-0.1,0.1-0.2c0.1-0.2,0.1-0.4,0.2-0.6c2.5-6.9,2.3-13.1,2.3-13.1c0,0,0,0,0,0c0-0.8,0-1.7,0-2.5
		c0,0,2,7.5-1,15.5C57.3,68,63,56.2,49,34.6z"/>
</g>
</svg>
