<?xml version="1.0" encoding="utf-8"?>
<!-- Generator: Adobe Illustrator 24.0.1, SVG Export Plug-In . SVG Version: 6.00 Build 0)  -->
<svg version="1.1" id="Camada_1" xmlns="http://www.w3.org/2000/svg" xmlns:xlink="http://www.w3.org/1999/xlink" x="0px" y="0px"
	 viewBox="0 0 100 100" style="enable-background:new 0 0 100 100;" xml:space="preserve">
<style type="text/css">
	.st0{fill:url(#SVGID_1_);}
	.st1{fill:url(#SVGID_2_);}
	.st2{fill:url(#SVGID_3_);}
	.st3{fill:url(#SVGID_4_);}
	.st4{fill:url(#SVGID_5_);}
</style>
<g>
	
		<linearGradient id="SVGID_1_" gradientUnits="userSpaceOnUse" x1="-582.9352" y1="537.8476" x2="-581.9352" y2="537.8476" gradientTransform="matrix(97.1185 0 0 -18.7 56615.332 10144.5566)">
		<stop  offset="0" style="stop-color:#7E7E7E"/>
		<stop  offset="1" style="stop-color:#7E7E7E"/>
	</linearGradient>
	<path class="st0" d="M1.5,96V79.3h6.2v2H4v5h2.8v2H4V94h3.8v2H1.5z M12.6,96.1L12.6,96.1c-1.1,0-2-0.5-2.6-1.4
		c-0.6-0.9-0.9-2.3-0.9-4.3l0,0V88c0-0.9,0.1-1.6,0.2-2.2c0.1-0.6,0.3-1.1,0.5-1.5c0.2-0.4,0.4-0.7,0.7-1c0.3-0.2,0.5-0.4,0.8-0.6
		c0.3-0.1,0.6-0.2,0.8-0.2c0.3,0,0.5-0.1,0.8-0.1l0,0c0.5,0,0.9,0.1,1.3,0.2c0.4,0.1,0.7,0.3,1,0.5c0.3,0.2,0.5,0.6,0.6,0.9
		c0.2,0.4,0.2,0.8,0.2,1.3l0,0c0,0.3,0,0.6,0,0.8c0,0.2-0.1,0.4-0.1,0.6l0,0h-2v-0.4c0-0.7-0.1-1.2-0.2-1.6
		c-0.2-0.4-0.4-0.6-0.8-0.6l0,0c-0.2,0-0.4,0-0.5,0.1c-0.1,0.1-0.3,0.3-0.4,0.5c-0.1,0.2-0.2,0.5-0.2,0.9c0,0.4-0.1,0.9-0.1,1.4l0,0
		V91c0,0.6,0,1.1,0.1,1.5c0,0.4,0.1,0.7,0.2,1c0.1,0.3,0.2,0.4,0.4,0.6c0.2,0.1,0.4,0.2,0.6,0.2l0,0c0.1,0,0.2,0,0.4-0.1
		c0.1-0.1,0.2-0.2,0.3-0.3c0.1-0.1,0.2-0.3,0.2-0.6c0.1-0.2,0.1-0.5,0.1-0.9l0,0V92H16v0.5c0,1.3-0.3,2.2-0.8,2.8
		C14.6,95.9,13.7,96.1,12.6,96.1z M18,96V78.2h2.5v3.2l-0.1,2.3c0.2-0.3,0.4-0.5,0.6-0.6c0.2-0.2,0.4-0.3,0.7-0.4
		c0.2-0.1,0.5-0.2,0.7-0.2c0.2,0,0.5-0.1,0.7-0.1l0,0c0.8,0,1.4,0.3,1.8,0.8c0.4,0.5,0.6,1.4,0.6,2.5l0,0V96h-2.5V85.8
		c0-0.6-0.1-1-0.3-1.2c-0.2-0.2-0.5-0.3-0.8-0.3l0,0c-0.2,0-0.5,0.1-0.7,0.2c-0.3,0.2-0.5,0.4-0.7,0.7l0,0V96H18z M31.3,96.1
		L31.3,96.1c-0.3,0-0.6,0-0.9-0.1c-0.3,0-0.6-0.1-0.9-0.3c-0.3-0.1-0.5-0.3-0.8-0.6c-0.2-0.3-0.5-0.6-0.6-1.1
		c-0.2-0.4-0.3-1-0.4-1.6c-0.1-0.6-0.2-1.4-0.2-2.3l0,0v-2.1c0-0.9,0.1-1.6,0.2-2.2c0.1-0.6,0.3-1.1,0.4-1.6c0.2-0.4,0.4-0.8,0.6-1
		c0.2-0.3,0.5-0.4,0.8-0.6c0.3-0.1,0.6-0.2,0.9-0.3c0.3,0,0.6-0.1,0.9-0.1l0,0c0.3,0,0.5,0,0.8,0.1c0.3,0,0.6,0.1,0.8,0.2
		c0.3,0.1,0.5,0.3,0.8,0.6c0.2,0.3,0.5,0.6,0.6,1c0.2,0.4,0.3,0.9,0.4,1.6c0.1,0.6,0.2,1.4,0.2,2.3l0,0v2.1c0,0.9-0.1,1.6-0.2,2.3
		c-0.1,0.6-0.3,1.2-0.5,1.6c-0.2,0.4-0.4,0.8-0.7,1.1c-0.2,0.3-0.5,0.5-0.8,0.6c-0.3,0.1-0.6,0.2-0.8,0.3
		C31.9,96.1,31.6,96.1,31.3,96.1z M31.4,94.2L31.4,94.2c0.2,0,0.4-0.1,0.6-0.2c0.2-0.1,0.3-0.3,0.4-0.6c0.1-0.3,0.2-0.6,0.2-1
		c0-0.4,0.1-1,0.1-1.6l0,0v-3.3c0-0.6,0-1.2-0.1-1.6c0-0.4-0.1-0.8-0.2-1c-0.1-0.3-0.2-0.5-0.4-0.6c-0.2-0.1-0.3-0.2-0.6-0.2l0,0
		c-0.2,0-0.4,0.1-0.6,0.2c-0.2,0.1-0.3,0.3-0.4,0.6s-0.2,0.6-0.2,1c0,0.4-0.1,1-0.1,1.6l0,0v3.3c0,0.6,0,1.2,0.1,1.6
		c0,0.4,0.1,0.8,0.2,1c0.1,0.3,0.2,0.4,0.4,0.6C30.9,94.2,31.1,94.2,31.4,94.2z M37.4,96V79.3h6.2v2h-3.7v5h2.8v2h-2.8V94h3.8v2
		H37.4z M44.8,93.2L44.8,93.2c0-0.3,0-0.6,0.1-0.9c0.1-0.3,0.1-0.5,0.2-0.7l0,0h1.7c0,0.5,0,0.9,0.1,1.2c0,0.3,0.1,0.6,0.2,0.8
		c0.1,0.2,0.3,0.3,0.4,0.4c0.2,0.1,0.4,0.1,0.7,0.1l0,0c0.4,0,0.6-0.1,0.8-0.3c0.2-0.2,0.3-0.4,0.3-0.7l0,0c0-0.1,0-0.3-0.1-0.4
		c0-0.1-0.1-0.3-0.2-0.4s-0.2-0.3-0.3-0.4c-0.1-0.1-0.2-0.3-0.4-0.5l0,0l-1.8-2.1c-0.2-0.3-0.5-0.6-0.7-0.9
		c-0.2-0.3-0.4-0.6-0.6-0.9c-0.2-0.3-0.3-0.7-0.4-1c-0.1-0.4-0.2-0.7-0.2-1.1l0,0c0-0.5,0.1-1,0.3-1.4c0.2-0.4,0.4-0.7,0.7-1
		c0.3-0.3,0.7-0.4,1-0.6c0.4-0.1,0.8-0.2,1.3-0.2l0,0c0.5,0,0.9,0.1,1.3,0.2s0.7,0.3,1,0.5s0.5,0.5,0.6,0.9c0.1,0.3,0.2,0.8,0.2,1.2
		l0,0c0,0.3,0,0.6-0.1,0.9c-0.1,0.3-0.1,0.5-0.2,0.8l0,0h-1.7c0-0.4,0-0.8-0.1-1.2c0-0.3-0.1-0.6-0.2-0.8c-0.1-0.2-0.2-0.4-0.4-0.5
		c-0.2-0.1-0.4-0.2-0.6-0.2l0,0c-0.2,0-0.4,0-0.5,0.1c-0.1,0.1-0.3,0.2-0.3,0.3c-0.1,0.1-0.2,0.2-0.2,0.4c0,0.1-0.1,0.3-0.1,0.4l0,0
		c0,0.3,0.1,0.6,0.2,0.9c0.2,0.3,0.3,0.6,0.6,0.9l0,0l2,2.3c0.1,0.2,0.3,0.4,0.5,0.6c0.2,0.3,0.4,0.5,0.5,0.8c0.2,0.3,0.3,0.6,0.4,1
		c0.1,0.4,0.2,0.7,0.2,1.1l0,0c0,0.5-0.1,0.9-0.2,1.3c-0.2,0.4-0.4,0.7-0.7,1c-0.3,0.3-0.7,0.5-1.1,0.6c-0.4,0.1-0.9,0.2-1.5,0.2
		l0,0c-0.4,0-0.9-0.1-1.3-0.2c-0.4-0.1-0.7-0.3-1-0.5c-0.3-0.2-0.5-0.5-0.7-0.9C44.9,94.2,44.8,93.7,44.8,93.2z M52.9,93.2
		L52.9,93.2c0-0.3,0-0.6,0.1-0.9c0.1-0.3,0.1-0.5,0.2-0.7l0,0h1.7c0,0.5,0,0.9,0.1,1.2c0,0.3,0.1,0.6,0.2,0.8
		c0.1,0.2,0.3,0.3,0.4,0.4c0.2,0.1,0.4,0.1,0.7,0.1l0,0c0.4,0,0.6-0.1,0.8-0.3c0.2-0.2,0.3-0.4,0.3-0.7l0,0c0-0.1,0-0.3-0.1-0.4
		c0-0.1-0.1-0.3-0.2-0.4S57,92.1,56.9,92c-0.1-0.1-0.2-0.3-0.4-0.5l0,0l-1.8-2.1c-0.2-0.3-0.5-0.6-0.7-0.9c-0.2-0.3-0.4-0.6-0.6-0.9
		c-0.2-0.3-0.3-0.7-0.4-1c-0.1-0.4-0.2-0.7-0.2-1.1l0,0c0-0.5,0.1-1,0.3-1.4c0.2-0.4,0.4-0.7,0.7-1c0.3-0.3,0.7-0.4,1-0.6
		s0.8-0.2,1.3-0.2l0,0c0.5,0,0.9,0.1,1.3,0.2s0.7,0.3,1,0.5s0.5,0.5,0.6,0.9c0.1,0.3,0.2,0.8,0.2,1.2l0,0c0,0.3,0,0.6-0.1,0.9
		c-0.1,0.3-0.1,0.5-0.2,0.8l0,0h-1.7c0-0.4,0-0.8-0.1-1.2c0-0.3-0.1-0.6-0.2-0.8c-0.1-0.2-0.2-0.4-0.4-0.5c-0.2-0.1-0.4-0.2-0.6-0.2
		l0,0c-0.2,0-0.4,0-0.5,0.1c-0.1,0.1-0.3,0.2-0.3,0.3c-0.1,0.1-0.2,0.2-0.2,0.4c0,0.1-0.1,0.3-0.1,0.4l0,0c0,0.3,0.1,0.6,0.2,0.9
		c0.2,0.3,0.3,0.6,0.6,0.9l0,0l2,2.3c0.1,0.2,0.3,0.4,0.5,0.6c0.2,0.3,0.4,0.5,0.5,0.8c0.2,0.3,0.3,0.6,0.4,1
		c0.1,0.4,0.2,0.7,0.2,1.1l0,0c0,0.5-0.1,0.9-0.2,1.3c-0.2,0.4-0.4,0.7-0.7,1c-0.3,0.3-0.7,0.5-1.1,0.6c-0.4,0.1-0.9,0.2-1.5,0.2
		l0,0c-0.4,0-0.9-0.1-1.3-0.2c-0.4-0.1-0.7-0.3-1-0.5c-0.3-0.2-0.5-0.5-0.7-0.9C53,94.2,52.9,93.7,52.9,93.2z M64.8,96.1L64.8,96.1
		c-0.6,0-1.1-0.1-1.5-0.3c-0.4-0.2-0.8-0.5-1.1-1c-0.3-0.5-0.5-1-0.7-1.8c-0.2-0.7-0.2-1.6-0.2-2.6l0,0V88c0-0.9,0.1-1.6,0.2-2.2
		c0.1-0.6,0.3-1.1,0.5-1.5c0.2-0.4,0.4-0.7,0.7-1c0.3-0.2,0.5-0.4,0.8-0.6c0.3-0.1,0.6-0.2,0.9-0.2c0.3,0,0.5-0.1,0.8-0.1l0,0
		c0.4,0,0.9,0.1,1.3,0.2c0.4,0.1,0.8,0.4,1.1,0.7c0.3,0.3,0.6,0.8,0.7,1.3c0.2,0.5,0.3,1.2,0.3,2l0,0c0,0.3,0,0.5,0,0.8
		c0,0.3,0,0.6-0.1,0.8c0,0.3-0.1,0.5-0.1,0.8c0,0.3-0.1,0.5-0.1,0.7l0,0h-4.5v1.4c0,0.6,0,1.1,0.1,1.5c0,0.4,0.1,0.7,0.2,1
		c0.1,0.2,0.3,0.4,0.4,0.5c0.2,0.1,0.4,0.2,0.7,0.2l0,0c0.1,0,0.3,0,0.4-0.1c0.1-0.1,0.3-0.2,0.4-0.3c0.1-0.1,0.2-0.3,0.3-0.6
		c0.1-0.2,0.1-0.5,0.1-0.9l0,0V92h2.1v0.5c0,1.3-0.3,2.2-0.9,2.8C66.8,95.9,65.9,96.1,64.8,96.1z M63.6,88.1h2.5c0-0.1,0-0.2,0-0.3
		s0-0.2,0-0.4c0-0.1,0-0.3,0-0.4c0-0.1,0-0.2,0-0.3l0,0c0-0.9-0.1-1.5-0.3-1.9c-0.2-0.4-0.5-0.6-0.9-0.6l0,0c-0.2,0-0.4,0-0.6,0.1
		c-0.2,0.1-0.3,0.3-0.4,0.5c-0.1,0.2-0.2,0.6-0.2,0.9c-0.1,0.4-0.1,0.9-0.1,1.5l0,0V88.1z M70.5,96V82.6h1.9l0.2,1.4v0
		c0.2-0.3,0.4-0.6,0.6-0.8c0.2-0.2,0.5-0.4,0.7-0.5c0.2-0.1,0.5-0.2,0.7-0.3c0.3-0.1,0.5-0.1,0.7-0.1l0,0c0.8,0,1.4,0.3,1.8,0.8
		c0.4,0.5,0.6,1.4,0.6,2.5l0,0V96h-2.5V85.8c0-0.6-0.1-1-0.3-1.2c-0.2-0.2-0.5-0.3-0.8-0.3l0,0c-0.2,0-0.5,0.1-0.7,0.2
		c-0.2,0.2-0.5,0.4-0.7,0.7l0,0V96H70.5z M80.8,92.7v-8.3h-1v-1.8H81l0.5-3.5h1.8v3.5h2.1v1.8h-2.1v8.6c0,0.3,0,0.5,0.1,0.7
		c0.1,0.2,0.1,0.3,0.2,0.4c0.1,0.1,0.2,0.2,0.3,0.2c0.1,0,0.3,0,0.4,0l0,0c0.2,0,0.5,0,0.6-0.1c0.2-0.1,0.4-0.1,0.5-0.2l0,0v1.4
		c-0.1,0.2-0.3,0.3-0.5,0.4c-0.2,0.1-0.3,0.2-0.5,0.3c-0.2,0.1-0.4,0.1-0.5,0.1c-0.2,0-0.4,0-0.5,0l0,0c-0.3,0-0.7,0-1-0.1
		c-0.3-0.1-0.6-0.3-0.8-0.5c-0.2-0.3-0.4-0.6-0.6-1.1S80.8,93.4,80.8,92.7L80.8,92.7z M88.4,80.6L88.4,80.6c-0.5,0-0.8-0.1-1.1-0.4
		c-0.3-0.3-0.4-0.7-0.4-1.2l0,0c0-0.3,0-0.5,0.1-0.7c0.1-0.2,0.2-0.4,0.3-0.5c0.1-0.1,0.3-0.2,0.5-0.3c0.2-0.1,0.4-0.1,0.6-0.1l0,0
		c0.5,0,0.9,0.1,1.1,0.4c0.3,0.2,0.4,0.6,0.4,1.2l0,0c0,0.5-0.1,0.9-0.4,1.2C89.3,80.5,88.9,80.6,88.4,80.6z M87.1,96V82.6h2.5V96
		H87.1z M94,96.1L94,96.1c-0.4,0-0.8-0.1-1.1-0.2c-0.3-0.2-0.6-0.4-0.8-0.7c-0.2-0.3-0.4-0.6-0.5-1c-0.1-0.4-0.2-0.8-0.2-1.3l0,0
		c0-0.6,0.1-1,0.2-1.5c0.1-0.4,0.3-0.8,0.6-1.2c0.3-0.3,0.6-0.7,1-0.9c0.4-0.3,0.8-0.6,1.4-0.8l0,0c0.2-0.1,0.5-0.2,0.8-0.4
		c0.3-0.1,0.6-0.2,0.8-0.3l0,0V86c0-0.3,0-0.5,0-0.7c0-0.2-0.1-0.4-0.1-0.6c-0.1-0.2-0.2-0.3-0.3-0.4c-0.1-0.1-0.4-0.1-0.6-0.1l0,0
		c-0.2,0-0.3,0-0.5,0.1c-0.2,0.1-0.3,0.2-0.4,0.3c-0.1,0.2-0.2,0.4-0.3,0.6c-0.1,0.3-0.1,0.6-0.1,1l0,0v0.6h-1.9
		c-0.1-0.3-0.1-0.5-0.1-0.7c0-0.2,0-0.4,0-0.6l0,0c0-0.5,0.1-0.9,0.3-1.3s0.4-0.7,0.7-1c0.3-0.3,0.7-0.5,1.1-0.6
		c0.4-0.1,0.9-0.2,1.4-0.2l0,0c0.7,0,1.2,0.1,1.7,0.2c0.4,0.1,0.8,0.4,1.1,0.7c0.3,0.3,0.5,0.7,0.6,1.1c0.1,0.4,0.2,1,0.2,1.6l0,0
		V96h-1.8l-0.2-1.2c-0.3,0.4-0.6,0.7-1.1,0.9C95.1,96,94.6,96.1,94,96.1z M95.1,94.2L95.1,94.2c0.2,0,0.4-0.1,0.6-0.2
		c0.2-0.1,0.4-0.2,0.5-0.4l0,0v-4.2c-0.1,0.1-0.3,0.1-0.4,0.2c-0.2,0.1-0.3,0.2-0.5,0.3l0,0c-0.2,0.1-0.3,0.2-0.5,0.4
		s-0.3,0.3-0.5,0.6c-0.1,0.2-0.2,0.5-0.3,0.7c-0.1,0.3-0.1,0.6-0.1,0.9l0,0c0,0.5,0.1,0.9,0.3,1.2C94.3,94.1,94.7,94.2,95.1,94.2z"
		/>
</g>
<g>
	
		<linearGradient id="SVGID_2_" gradientUnits="userSpaceOnUse" x1="-252.2908" y1="443.1481" x2="-251.6092" y2="443.1481" gradientTransform="matrix(100 0 0 -100 25245 44355)">
		<stop  offset="0" style="stop-color:#419A1C"/>
		<stop  offset="1" style="stop-color:#419A1C"/>
	</linearGradient>
	<circle class="st1" cx="50" cy="40.2" r="34.1"/>
</g>
<g>
	
		<linearGradient id="SVGID_3_" gradientUnits="userSpaceOnUse" x1="-250.2036" y1="441.6658" x2="-249.5393" y2="441.6658" gradientTransform="matrix(55.04 0 0 -68.1777 13802.9219 30155.3535)">
		<stop  offset="0" style="stop-color:#FFFFFF"/>
		<stop  offset="1" style="stop-color:#FFFFFF"/>
	</linearGradient>
	<path class="st2" d="M39,20.9c0,0-1.5,0-1.5,0c-3.2,0-5.8,2.5-5.8,5.5v34.2c0,3.1,2.6,5.5,5.8,5.5h24.9c3.2,0,5.8-2.5,5.8-5.5V26.5
		c0-3.1-2.6-5.5-5.8-5.5c0,0-1.5,0-1.5,0C60.9,20.9,39,20.9,39,20.9z M62.4,26.5v34.2H37.6V26.5H62.4z"/>
</g>
<g>
	
		<linearGradient id="SVGID_4_" gradientUnits="userSpaceOnUse" x1="-247.7122" y1="420.2813" x2="-247.1214" y2="420.2813" gradientTransform="matrix(36 0 0 -13.108 8957 5525.168)">
		<stop  offset="0" style="stop-color:#FFFFFF"/>
		<stop  offset="1" style="stop-color:#FFFFFF"/>
	</linearGradient>
	<path class="st3" d="M60.6,17.2c0-2.7-1.6-5-4.3-5c0,0-1.2,0-1.2,0l-9.2,0.1c0,0-1.5,0-1.5,0c-2.7,0-5,2.1-5,4.7v3h21.3V17.2z"/>
</g>
<g>
	
		<linearGradient id="SVGID_5_" gradientUnits="userSpaceOnUse" x1="-238.5876" y1="439.0434" x2="-237.9233" y2="439.0434" gradientTransform="matrix(15.7224 0 0 -44.1226 3795.9441 19415.334)">
		<stop  offset="0" style="stop-color:#FFFFFF"/>
		<stop  offset="1" style="stop-color:#FFFFFF"/>
	</linearGradient>
	<path class="st4" d="M49.3,28.9c0,0,1.2,2.9-2.4,8.9c-2.9,4.8-3.1,9.7,0.6,13.1c0.3,0.2,0.5,0.4,0.8,0.6c0.2,0.1,0.4,0.2,0.5,0.2
		c0,0-1.2,2.8-2.7,4c0,0,0,0.1,0,0.1s-1.3,5.1,1.6,0.5c0.1-0.2,0.2-0.3,0.3-0.5c0,0,0.1-0.1,0.1-0.1c0.1-0.1,0.2-0.3,0.2-0.4
		c0,0,0-0.1,0.1-0.1c0.1-0.1,0.1-0.3,0.2-0.4c0-0.1,0.1-0.1,0.1-0.2c0.1-0.1,0.1-0.2,0.2-0.4c0,0,0-0.1,0.1-0.1
		c0.1-0.1,0.1-0.3,0.2-0.4c0,0,0-0.1,0.1-0.1c0.1-0.1,0.1-0.3,0.2-0.4c0,0,0-0.1,0.1-0.1c0.1-0.1,0.1-0.3,0.2-0.4c0,0,0-0.1,0.1-0.1
		c0-0.1,0.1-0.3,0.1-0.4c1.7-4.7,1.6-8.9,1.6-8.9c0,0,0,0,0,0c0-0.6,0-1.1,0-1.7c0,0,1.3,5.1-0.7,10.6
		C54.9,51.8,58.9,43.7,49.3,28.9z"/>
</g>
</svg>
