<?xml version="1.0" encoding="utf-8"?>
<!-- Generator: Adobe Illustrator 24.0.1, SVG Export Plug-In . SVG Version: 6.00 Build 0)  -->
<svg version="1.1" id="Camada_1" xmlns="http://www.w3.org/2000/svg" xmlns:xlink="http://www.w3.org/1999/xlink" x="0px" y="0px"
	 viewBox="0 0 100 100" style="enable-background:new 0 0 100 100;" xml:space="preserve">
<style type="text/css">
	.st0{fill:url(#SVGID_1_);}
	.st1{fill:url(#SVGID_2_);}
	.st2{fill:url(#SVGID_3_);}
	.st3{fill:url(#SVGID_4_);}
</style>
<g>
	
		<linearGradient id="SVGID_1_" gradientUnits="userSpaceOnUse" x1="-252.45" y1="443.05" x2="-251.45" y2="443.05" gradientTransform="matrix(100 0 0 -100 25245 44355)">
		<stop  offset="0" style="stop-color:#419A1C"/>
		<stop  offset="1" style="stop-color:#419A1C"/>
	</linearGradient>
	<circle class="st0" cx="50" cy="50" r="50"/>
</g>
<g>
	
		<linearGradient id="SVGID_2_" gradientUnits="userSpaceOnUse" x1="-250.3587" y1="441.5113" x2="-249.3841" y2="441.5113" gradientTransform="matrix(55.04 0 0 -68.1777 13802.9219 30155.3535)">
		<stop  offset="0" style="stop-color:#FFFFFF"/>
		<stop  offset="1" style="stop-color:#FFFFFF"/>
	</linearGradient>
	<path class="st1" d="M33.9,20.9c0,0-2.2,0-2.2,0c-4.7,0-8.6,3.6-8.6,8.1v50.1c0,4.5,3.8,8.1,8.6,8.1h36.5c4.7,0,8.6-3.6,8.6-8.1
		V29.1c0-4.5-3.8-8.1-8.6-8.1c0,0-2.2,0-2.2,0C66.1,20.9,33.9,20.9,33.9,20.9z M68.3,29.1v50.1H31.7V29.1H68.3z"/>
</g>
<g>
	
		<linearGradient id="SVGID_3_" gradientUnits="userSpaceOnUse" x1="-247.85" y1="420.4565" x2="-246.9832" y2="420.4565" gradientTransform="matrix(36 0 0 -13.108 8957 5525.168)">
		<stop  offset="0" style="stop-color:#FFFFFF"/>
		<stop  offset="1" style="stop-color:#FFFFFF"/>
	</linearGradient>
	<path class="st2" d="M65.6,15.5c0-4-2.3-7.3-6.3-7.3c0,0-1.8,0-1.8,0L44,8.2c0,0-2.2,0-2.2,0c-3.9,0-7.4,3.1-7.4,6.9v4.3h31.2V15.5
		z"/>
</g>
<g>
	
		<linearGradient id="SVGID_4_" gradientUnits="userSpaceOnUse" x1="-238.7424" y1="438.8045" x2="-237.7678" y2="438.8045" gradientTransform="matrix(15.7224 0 0 -44.1226 3795.9441 19415.334)">
		<stop  offset="0" style="stop-color:#FFFFFF"/>
		<stop  offset="1" style="stop-color:#FFFFFF"/>
	</linearGradient>
	<path class="st3" d="M49,32.6c0,0,1.8,4.2-3.5,13C41.3,52.8,41,60,46.4,64.9c0.4,0.3,0.8,0.6,1.2,0.9c0.3,0.1,0.5,0.2,0.8,0.3
		c0,0-1.8,4.1-4,5.9c0,0.1-0.1,0.1-0.1,0.1s-1.8,7.5,2.3,0.7c0.1-0.2,0.3-0.5,0.4-0.7c0-0.1,0.1-0.1,0.1-0.2
		c0.1-0.2,0.2-0.4,0.3-0.6c0-0.1,0.1-0.1,0.1-0.2c0.1-0.2,0.2-0.4,0.3-0.6c0-0.1,0.1-0.2,0.1-0.2c0.1-0.2,0.2-0.4,0.3-0.5
		c0-0.1,0.1-0.1,0.1-0.2c0.1-0.2,0.2-0.4,0.3-0.6c0-0.1,0.1-0.1,0.1-0.2c0.1-0.2,0.2-0.4,0.3-0.6c0-0.1,0.1-0.1,0.1-0.2
		c0.1-0.2,0.2-0.4,0.2-0.6c0-0.1,0.1-0.1,0.1-0.2c0.1-0.2,0.1-0.4,0.2-0.6c2.5-6.9,2.3-13.1,2.3-13.1c0,0,0,0,0,0c0-0.8,0-1.7,0-2.5
		c0,0,2,7.5-1,15.5C57.3,66.1,63,54.3,49,32.6z"/>
</g>
</svg>
