<svg
        xmlns="http://www.w3.org/2000/svg" width="500" height="500" viewBox='0 0 100 100'>
    <defs>
        <linearGradient x1="0" y1="0.5" x2="1" y2="0.5" id="circle">
            <stop offset="0%" stop-color="#419a1c"></stop>
            <stop offset="100%" stop-color="#419a1c"></stop>
        </linearGradient>
        <linearGradient x1="0" y1="0.5" x2="1" y2="0.5" id="square">
            <stop offset="0%" stop-color="#ffffff"></stop>
            <stop offset="100%" stop-color="#ffffff"></stop>
        </linearGradient>
        <linearGradient x1="0" y1="0.5" x2="1" y2="0.5" id="roundSquare">
            <stop offset="0%" stop-color="#ffffff"></stop>
            <stop offset="100%" stop-color="#ffffff"></stop>
        </linearGradient>
        <linearGradient x1="0" y1="0.5" x2="1" y2="0.5" id="leaf">
            <stop offset="0%" stop-color="#ffffff"></stop>
            <stop offset="100%" stop-color="#ffffff"></stop>
        </linearGradient>
    </defs>
    <svg viewBox="0 0 150 150">
        <g>
            <circle cx="50" cy="50" r="50" fill="url('#circle')"></circle>
        </g>
    </svg>
    <svg viewBox="0 0 150 150">
        <g>
            <path fill="url('#square')"
                  d="M33.756,21.234c0,0.008-2.242,0.022-2.242,0.022c-4.856,0-8.792,3.936-8.792,8.792v54.161    c0,4.855,3.936,8.791,8.792,8.791h37.455c4.854,0,8.793-3.936,8.793-8.791V30.047c0-4.856-3.938-8.792-8.793-8.792    c0,0-2.245-0.013-2.245-0.021H33.756z M68.969,30.047v54.162H31.512V30.047H68.969z"
                  stroke="none" style=""></path>
        </g>
    </svg>
    <svg viewBox="0 0 150 150" xmlns="http://www.w3.org/2000/svg">
        <g>
            <path fill="url('#roundSquare')"
                  d="M68,14.337c0-4.653-2.66-8.425-7.309-8.425c0,0-2.096-0.014-2.096-0.02L43.088,6    c0,0.006-2.584,0.021-2.584,0.021C36.001,6.021,32,9.555,32,14v5h36V14.337z"
                  stroke="none" style=""></path>
        </g>
    </svg>
    <svg viewBox="-120-150 600 600" xmlns="http://www.w3.org/2000/svg">
        <g>
            <path d="M84.385,0.139c0,0,7.216,17.238-14.382,53.421c-17.426,29.192-18.639,58.697,3.698,78.898
            c1.574,1.424,3.225,2.605,4.922,3.58c1.028,0.549,2.12,0.998,3.211,1.226c0,0-7.284,16.83-16.376,24.38
            c-0.191,0.297-0.294,0.453-0.294,0.453s-7.554,30.633,9.402,2.949c0.595-0.971,1.168-1.947,1.731-2.924
            c0.163-0.283,0.321-0.566,0.481-0.85c0.466-0.824,0.925-1.648,1.368-2.477c0.141-0.262,0.276-0.524,0.415-0.787
            c0.398-0.754,0.789-1.51,1.169-2.266c0.16-0.316,0.316-0.633,0.473-0.949c0.369-0.75,0.73-1.5,1.083-2.25
            c0.133-0.283,0.267-0.565,0.397-0.848c0.373-0.807,0.734-1.613,1.088-2.42c0.12-0.273,0.242-0.548,0.36-0.821
            c0.356-0.825,0.701-1.651,1.038-2.476c0.117-0.285,0.235-0.572,0.35-0.858c0.327-0.813,0.645-1.626,0.954-2.437
            c0.111-0.293,0.223-0.586,0.332-0.879c0.3-0.803,0.593-1.604,0.876-2.401c10.097-28.437,9.512-53.575,9.512-53.575
            c0,0.004,0,0.008-0.001,0.013c0.145-3.411,0.118-6.859-0.118-10.318c0,0,8.102,30.597-4.262,63.721
            C118.147,137.541,141.861,88.845,84.385,0.139z" fill="url('#leaf')" stroke="none" style=""></path>
        </g>
    </svg>
</svg>
