<svg
        xmlns="http://www.w3.org/2000/svg" viewBox='0 0 100 400'>
    <defs>
        <linearGradient x1="0" y1="0.5" x2="1" y2="0.5" id="circle">
            <stop offset="0%" stop-color="#419a1c"></stop>
            <stop offset="100%" stop-color="#419a1c"></stop>
        </linearGradient>
        <linearGradient x1="0" y1="0.5" x2="1" y2="0.5" id="square">
            <stop offset="0%" stop-color="#ffffff"></stop>
            <stop offset="100%" stop-color="#ffffff"></stop>
        </linearGradient>
        <linearGradient x1="0" y1="0.5" x2="1" y2="0.5" id="roundSquare">
            <stop offset="0%" stop-color="#ffffff"></stop>
            <stop offset="100%" stop-color="#ffffff"></stop>
        </linearGradient>
        <linearGradient x1="0" y1="0.5" x2="1" y2="0.5" id="leaf">
            <stop offset="0%" stop-color="#ffffff"></stop>
            <stop offset="100%" stop-color="#ffffff"></stop>
        </linearGradient>
        <linearGradient x1="0" y1="0.5" x2="1" y2="0.5" id="text">
            <stop offset="0%" stop-color="#7e7e7e"></stop>
            <stop offset="100%" stop-color="#7e7e7e"></stop>
        </linearGradient>
    </defs>
    <svg viewBox="0 0 150 150">
        <g>
            <circle cx="50" cy="50" r="50" fill="url('#circle')"></circle>
        </g>
    </svg>
    <svg viewBox="0 0 150 150">
        <g>
            <path fill="url('#square')"
                  d="M33.756,21.234c0,0.008-2.242,0.022-2.242,0.022c-4.856,0-8.792,3.936-8.792,8.792v54.161    c0,4.855,3.936,8.791,8.792,8.791h37.455c4.854,0,8.793-3.936,8.793-8.791V30.047c0-4.856-3.938-8.792-8.793-8.792    c0,0-2.245-0.013-2.245-0.021H33.756z M68.969,30.047v54.162H31.512V30.047H68.969z"
                  stroke="none" style=""></path>
        </g>
    </svg>
    <svg viewBox="0 0 150 150" xmlns="http://www.w3.org/2000/svg">
        <g>
            <path fill="url('#roundSquare')"
                  d="M68,14.337c0-4.653-2.66-8.425-7.309-8.425c0,0-2.096-0.014-2.096-0.02L43.088,6    c0,0.006-2.584,0.021-2.584,0.021C36.001,6.021,32,9.555,32,14v5h36V14.337z"
                  stroke="none" style=""></path>
        </g>
    </svg>
    <svg viewBox="-120-150 600 600" xmlns="http://www.w3.org/2000/svg">
        <g>
            <path d="M84.385,0.139c0,0,7.216,17.238-14.382,53.421c-17.426,29.192-18.639,58.697,3.698,78.898
            c1.574,1.424,3.225,2.605,4.922,3.58c1.028,0.549,2.12,0.998,3.211,1.226c0,0-7.284,16.83-16.376,24.38
            c-0.191,0.297-0.294,0.453-0.294,0.453s-7.554,30.633,9.402,2.949c0.595-0.971,1.168-1.947,1.731-2.924
            c0.163-0.283,0.321-0.566,0.481-0.85c0.466-0.824,0.925-1.648,1.368-2.477c0.141-0.262,0.276-0.524,0.415-0.787
            c0.398-0.754,0.789-1.51,1.169-2.266c0.16-0.316,0.316-0.633,0.473-0.949c0.369-0.75,0.73-1.5,1.083-2.25
            c0.133-0.283,0.267-0.565,0.397-0.848c0.373-0.807,0.734-1.613,1.088-2.42c0.12-0.273,0.242-0.548,0.36-0.821
            c0.356-0.825,0.701-1.651,1.038-2.476c0.117-0.285,0.235-0.572,0.35-0.858c0.327-0.813,0.645-1.626,0.954-2.437
            c0.111-0.293,0.223-0.586,0.332-0.879c0.3-0.803,0.593-1.604,0.876-2.401c10.097-28.437,9.512-53.575,9.512-53.575
            c0,0.004,0,0.008-0.001,0.013c0.145-3.411,0.118-6.859-0.118-10.318c0,0,8.102,30.597-4.262,63.721
            C118.147,137.541,141.861,88.845,84.385,0.139z" fill="url('#leaf')" stroke="none" style=""></path>
        </g>
    </svg>
    <svg viewBox="-130 -250 400 100" xmlns="http://www.w3.org/2000/svg">
        <g>
            <path d="M-242.4549609375 0L-242.4549609375-83.4L-211.5449609375-83.4L-211.5449609375-73.44L-229.8049609375-73.44L-229.8049609375-48.49L-215.6949609375-48.49L-215.6949609375-38.53L-229.8049609375-38.53L-229.8049609375-9.96L-211.0549609375-9.96L-211.0549609375 0L-242.4549609375 0ZM-187.0376171875 0.73L-187.0376171875 0.73Q-195.5276171875 0.73 -199.9976171875-6.25Q-204.4676171875-13.23 -204.4676171875-27.54L-204.4676171875-27.54L-204.4676171875-40.23Q-204.4676171875-46.63 -203.5376171875-51.2Q-202.6076171875-55.76 -201.0776171875-58.86Q-199.5376171875-61.96 -197.5576171875-63.77Q-195.5776171875-65.58 -193.4776171875-66.53Q-191.3776171875-67.48 -189.3276171875-67.75Q-187.2776171875-68.02 -185.5676171875-68.02L-185.5676171875-68.02Q-182.1576171875-68.02 -179.3176171875-67.11Q-176.4876171875-66.21 -174.4376171875-64.38Q-172.38761718749998-62.55 -171.2676171875-59.77Q-170.13761718749998-56.98 -170.13761718749998-53.22L-170.13761718749998-53.22Q-170.13761718749998-50.88 -170.3576171875-49.19Q-170.5776171875-47.51 -170.9676171875-45.95L-170.9676171875-45.95L-180.8376171875-45.95L-180.8376171875-48.19Q-180.8376171875-53.27 -182.0276171875-56.13Q-183.22761718750002-58.98 -185.9576171875-58.98L-185.9576171875-58.98Q-187.47761718750002-58.98 -188.5976171875-58.28Q-189.7176171875-57.57 -190.47761718750002-55.86Q-191.2376171875-54.15 -191.5976171875-51.27Q-191.9676171875-48.39 -191.9676171875-44.04L-191.9676171875-44.04L-191.9676171875-24.95Q-191.9676171875-20.56 -191.6776171875-17.48Q-191.3776171875-14.4 -190.6476171875-12.48Q-189.9176171875-10.55 -188.6976171875-9.67Q-187.47761718750002-8.79 -185.6676171875-8.79L-185.6676171875-8.79Q-184.7376171875-8.79 -183.8576171875-9.25Q-182.9876171875-9.72 -182.3276171875-10.79Q-181.6676171875-11.87 -181.2476171875-13.65Q-180.8376171875-15.43 -180.8376171875-18.07L-180.8376171875-18.07L-180.8376171875-20.17L-170.1876171875-20.17L-170.1876171875-17.58Q-170.1876171875-8.01 -174.4176171875-3.64Q-178.63761718749998 0.73 -187.0376171875 0.73ZM-160.1783203125 0L-160.1783203125-88.82L-147.8283203125-88.82L-147.8283203125-73L-148.4583203125-61.47Q-147.0983203125-63.38 -145.5083203125-64.62Q-143.9183203125-65.87 -142.2383203125-66.63Q-140.5483203125-67.38 -138.8183203125-67.7Q-137.0883203125-68.02 -135.3783203125-68.02L-135.3783203125-68.02Q-129.4683203125-68.02 -126.26832031250001-63.89Q-123.06832031249999-59.77 -123.06832031249999-51.51L-123.06832031249999-51.51L-123.06832031249999 0L-135.4283203125 0L-135.4283203125-51.07Q-135.4283203125-55.52 -136.7883203125-57.25Q-138.1583203125-58.98 -140.7983203125-58.98L-140.7983203125-58.98Q-142.6483203125-58.98 -144.5283203125-57.74Q-146.4083203125-56.49 -147.8283203125-54.3L-147.8283203125-54.3L-147.8283203125 0L-160.1783203125 0ZM-93.33597656250001 0.73L-93.33597656250001 0.73Q-95.48597656250001 0.73 -97.70597656250001 0.39Q-99.92597656250001 0.05 -102.00597656250001-1.03Q-104.07597656250002-2.1 -105.90597656250002-4.1Q-107.73597656250001-6.1 -109.10597656250002-9.38Q-110.47597656250001-12.65 -111.25597656250001-17.43Q-112.03597656250001-22.22 -112.03597656250001-28.86L-112.03597656250001-28.86L-112.03597656250001-39.4Q-112.03597656250001-45.95 -111.22597656250001-50.61Q-110.42597656250001-55.27 -109.03597656250001-58.45Q-107.64597656250001-61.62 -105.78597656250001-63.5Q-103.92597656250001-65.38 -101.85597656250002-66.38Q-99.7759765625-67.38 -97.58597656250001-67.7Q-95.38597656250002-68.02 -93.28597656250001-68.02L-93.28597656250001-68.02Q-91.28597656250001-68.02 -89.13597656250002-67.72Q-86.98597656250001-67.43 -84.93597656250002-66.48Q-82.88597656250002-65.53 -81.0559765625-63.65Q-79.22597656250002-61.77 -77.83597656250001-58.59Q-76.43597656250002-55.42 -75.63597656250002-50.71Q-74.82597656250002-46 -74.82597656250002-39.4L-74.82597656250002-39.4L-74.82597656250002-28.86Q-74.82597656250002-22.31 -75.65597656250002-17.58Q-76.48597656250001-12.84 -77.90597656250002-9.57Q-79.32597656250002-6.3 -81.17597656250001-4.27Q-83.03597656250001-2.25 -85.08597656250001-1.12Q-87.13597656250002 0 -89.25597656250001 0.37Q-91.38597656250002 0.73 -93.33597656250001 0.73ZM-93.23597656250001-8.79L-93.23597656250001-8.79Q-91.57597656250002-8.79 -90.42597656250001-9.64Q-89.28597656250001-10.5 -88.57597656250002-12.45Q-87.86597656250001-14.4 -87.54597656250002-17.6Q-87.23597656250001-20.8 -87.23597656250001-25.54L-87.23597656250001-25.54L-87.23597656250001-42.09Q-87.23597656250001-46.83 -87.54597656250002-50.05Q-87.86597656250001-53.27 -88.57597656250002-55.25Q-89.28597656250001-57.23 -90.42597656250001-58.11Q-91.57597656250002-58.98 -93.23597656250001-58.98L-93.23597656250001-58.98Q-94.99597656250002-58.98 -96.19597656250002-58.11Q-97.38597656250002-57.23 -98.16597656250002-55.25Q-98.94597656250002-53.27 -99.29597656250002-50.05Q-99.63597656250002-46.83 -99.63597656250002-42.09L-99.63597656250002-42.09L-99.63597656250002-25.54Q-99.63597656250002-20.8 -99.29597656250002-17.6Q-98.94597656250002-14.4 -98.16597656250002-12.45Q-97.38597656250002-10.5 -96.19597656250002-9.64Q-94.99597656250002-8.79 -93.23597656250001-8.79ZM-63.10925781250001 0L-63.10925781250001-83.4L-32.199257812500015-83.4L-32.199257812500015-73.44L-50.45925781250001-73.44L-50.45925781250001-48.49L-36.349257812500014-48.49L-36.349257812500014-38.53L-50.45925781250001-38.53L-50.45925781250001-9.96L-31.709257812500013-9.96L-31.709257812500013 0L-63.10925781250001 0ZM-26.001914062500028-14.06L-26.001914062500028-14.06Q-26.001914062500028-16.26 -25.58191406250003-18.31Q-25.17191406250003-20.36 -24.78191406250003-21.58L-24.78191406250003-21.58L-16.09191406250003-21.58Q-16.09191406250003-17.92 -15.721914062500028-15.45Q-15.351914062500029-12.99 -14.521914062500029-11.52Q-13.691914062500029-10.06 -12.301914062500028-9.42Q-10.911914062500028-8.79 -8.911914062500028-8.79L-8.911914062500028-8.79Q-6.13191406250003-8.79 -4.861914062500027-10.35Q-3.5919140625000274-11.91 -3.5919140625000274-13.96L-3.5919140625000274-13.96Q-3.5919140625000274-15.04 -3.88191406250003-16.02Q-4.171914062500029-16.99 -4.711914062500028-17.99Q-5.251914062500028-18.99 -6.031914062500029-20.02Q-6.81191406250003-21.04 -7.791914062500027-22.27L-7.791914062500027-22.27L-16.821914062500028-32.91Q-18.581914062500026-35.11 -20.21191406250003-37.38Q-21.85191406250003-39.65 -23.091914062500027-42.07Q-24.341914062500027-44.48 -25.10191406250003-47.12Q-25.85191406250003-49.76 -25.85191406250003-52.69L-25.85191406250003-52.69Q-25.85191406250003-56.59 -24.51191406250003-59.47Q-23.17191406250003-62.35 -20.901914062500026-64.26Q-18.63191406250003-66.16 -15.651914062500028-67.09Q-12.67191406250003-68.02 -9.351914062500029-68.02L-9.351914062500029-68.02Q-5.691914062500029-68.02 -2.761914062500029-67.14Q 0.16808593749997058-66.26  2.268085937499972-64.5Q 4.36808593749997-62.74  5.498085937499972-60.13Q 6.61808593749997-57.52  6.61808593749997-54.05L 6.61808593749997-54.05Q 6.61808593749997-51.71  6.198085937499968-49.51Q 5.788085937499972-47.31  5.398085937499971-45.75L 5.398085937499971-45.75L-3.1519140625000297-45.75Q-3.201914062500027-49.07 -3.441914062500029-51.56Q-3.6819140625000273-54.05 -4.341914062500027-55.69Q-5.001914062500028-57.32 -6.15191406250003-58.15Q-7.301914062500028-58.98 -9.15191406250003-58.98L-9.15191406250003-58.98Q-10.76191406250003-58.98 -11.841914062500027-58.47Q-12.911914062500028-57.96 -13.571914062500028-57.13Q-14.231914062500028-56.3 -14.501914062500028-55.27Q-14.771914062500029-54.25 -14.771914062500029-53.17L-14.771914062500029-53.17Q-14.771914062500029-50.83 -13.65191406250003-48.83Q-12.521914062500027-46.83 -10.67191406250003-44.48L-10.67191406250003-44.48L-0.8019140625000283-32.91Q 0.268085937499972-31.59  1.6880859374999702-29.71Q 3.098085937499974-27.83  4.36808593749997-25.56Q 5.638085937499973-23.29  6.5180859374999685-20.61Q 7.398085937499971-17.92  7.398085937499971-14.99L 7.398085937499971-14.99Q 7.398085937499971-11.43  6.278085937499974-8.52Q 5.148085937499971-5.62  2.9580859374999733-3.56Q 0.7580859374999704-1.51 -2.441914062500029-0.39Q-5.641914062500028 0.73 -9.74191406250003 0.73L-9.74191406250003 0.73Q-13.111914062500027 0.73 -16.09191406250003-0.02Q-19.071914062500028-0.78 -21.26191406250003-2.51Q-23.46191406250003-4.25 -24.731914062500028-7.08Q-26.001914062500028-9.91 -26.001914062500028-14.06ZM 14.476601562499962-14.06L 14.476601562499962-14.06Q 14.476601562499962-16.26  14.89660156249996-18.31Q 15.30660156249996-20.36  15.69660156249996-21.58L 15.69660156249996-21.58L 24.386601562499962-21.58Q 24.386601562499962-17.92  24.75660156249996-15.45Q 25.12660156249996-12.99  25.956601562499962-11.52Q 26.78660156249996-10.06  28.17660156249996-9.42Q 29.56660156249996-8.79  31.56660156249996-8.79L 31.56660156249996-8.79Q 34.346601562499956-8.79  35.616601562499966-10.35Q 36.88660156249996-11.91  36.88660156249996-13.96L 36.88660156249996-13.96Q 36.88660156249996-15.04  36.596601562499956-16.02Q 36.306601562499964-16.99  35.76660156249996-17.99Q 35.226601562499965-18.99  34.446601562499964-20.02Q 33.66660156249996-21.04  32.68660156249996-22.27L 32.68660156249996-22.27L 23.65660156249996-32.91Q 21.89660156249996-35.11  20.26660156249996-37.38Q 18.62660156249996-39.65  17.386601562499962-42.07Q 16.136601562499962-44.48  15.37660156249996-47.12Q 14.62660156249996-49.76  14.62660156249996-52.69L 14.62660156249996-52.69Q 14.62660156249996-56.59  15.96660156249996-59.47Q 17.30660156249996-62.35  19.57660156249996-64.26Q 21.846601562499963-66.16  24.82660156249996-67.09Q 27.80660156249996-68.02  31.12660156249996-68.02L 31.12660156249996-68.02Q 34.78660156249996-68.02  37.71660156249996-67.14Q 40.64660156249996-66.26  42.74660156249996-64.5Q 44.846601562499956-62.74  45.976601562499965-60.13Q 47.096601562499956-57.52  47.096601562499956-54.05L 47.096601562499956-54.05Q 47.096601562499956-51.71  46.676601562499954-49.51Q 46.26660156249996-47.31  45.87660156249996-45.75L 45.87660156249996-45.75L 37.32660156249996-45.75Q 37.27660156249996-49.07  37.03660156249996-51.56Q 36.79660156249996-54.05  36.13660156249996-55.69Q 35.476601562499965-57.32  34.32660156249996-58.15Q 33.17660156249996-58.98  31.32660156249996-58.98L 31.32660156249996-58.98Q 29.71660156249996-58.98  28.636601562499962-58.47Q 27.56660156249996-57.96  26.90660156249996-57.13Q 26.24660156249996-56.3  25.97660156249996-55.27Q 25.706601562499962-54.25  25.706601562499962-53.17L 25.706601562499962-53.17Q 25.706601562499962-50.83  26.82660156249996-48.83Q 27.956601562499962-46.83  29.80660156249996-44.48L 29.80660156249996-44.48L 39.67660156249996-32.91Q 40.74660156249996-31.59  42.16660156249996-29.71Q 43.57660156249996-27.83  44.846601562499956-25.56Q 46.116601562499966-23.29  46.99660156249996-20.61Q 47.87660156249996-17.92  47.87660156249996-14.99L 47.87660156249996-14.99Q 47.87660156249996-11.43  46.75660156249997-8.52Q 45.62660156249996-5.62  43.43660156249996-3.56Q 41.236601562499956-1.51  38.03660156249996-0.39Q 34.836601562499965 0.73  30.73660156249996 0.73L 30.73660156249996 0.73Q 27.366601562499962 0.73  24.386601562499962-0.02Q 21.40660156249996-0.78  19.21660156249996-2.51Q 17.01660156249996-4.25  15.746601562499961-7.08Q 14.476601562499962-9.91  14.476601562499962-14.06ZM 73.80511718749996 0.73L 73.80511718749996 0.73Q 69.45511718749995 0.73  66.11511718749996-0.88Q 62.76511718749995-2.49  60.47511718749996-5.91Q 58.17511718749996-9.33  57.005117187499955-14.67Q 55.83511718749996-20.02  55.83511718749996-27.54L 55.83511718749996-27.54L 55.83511718749996-40.23Q 55.83511718749996-46.63  56.78511718749996-51.2Q 57.73511718749996-55.76  59.27511718749996-58.86Q 60.81511718749996-61.96  62.84511718749996-63.77Q 64.86511718749996-65.58  67.01511718749995-66.53Q 69.16511718749996-67.48  71.28511718749996-67.75Q 73.41511718749996-68.02  75.21511718749996-68.02L 75.21511718749996-68.02Q 78.53511718749996-68.02  81.61511718749996-67.02Q 84.69511718749996-66.02  87.03511718749996-63.6Q 89.37511718749997-61.18  90.77511718749996-57.13Q 92.16511718749996-53.08  92.16511718749996-47.02L 92.16511718749996-47.02Q 92.16511718749996-44.97  92.04511718749995-42.87Q 91.91511718749996-40.77  91.72511718749996-38.75Q 91.52511718749996-36.72  91.21511718749996-34.81Q 90.89511718749995-32.91  90.55511718749996-31.3L 90.55511718749996-31.3L 68.23511718749995-31.3L 68.23511718749995-24.46Q 68.23511718749995-20.07  68.57511718749996-17.07Q 68.92511718749995-14.06  69.72511718749996-12.23Q 70.53511718749996-10.4  71.92511718749995-9.59Q 73.31511718749996-8.79  75.41511718749996-8.79L 75.41511718749996-8.79Q 76.53511718749996-8.79  77.61511718749996-9.25Q 78.68511718749996-9.72  79.49511718749996-10.79Q 80.29511718749995-11.87  80.78511718749996-13.65Q 81.27511718749996-15.43  81.27511718749996-18.07L 81.27511718749996-18.07L 81.27511718749996-20.17L 91.57511718749996-20.17L 91.57511718749996-17.58Q 91.57511718749996-8.01  87.01511718749995-3.64Q 82.44511718749996 0.73  73.80511718749996 0.73ZM 68.23511718749995-39.6L 80.63511718749996-39.6Q 80.68511718749996-40.14  80.73511718749995-41.04Q 80.78511718749996-41.94  80.81511718749996-42.92Q 80.83511718749996-43.9  80.83511718749996-44.85Q 80.83511718749996-45.8  80.83511718749996-46.48L 80.83511718749996-46.48Q 80.83511718749996-53.13  79.27511718749996-56.05Q 77.70511718749995-58.98  74.63511718749996-58.98L 74.63511718749996-58.98Q 73.02511718749996-58.98  71.80511718749996-58.23Q 70.58511718749996-57.47  69.79511718749995-55.69Q 69.01511718749995-53.91  68.62511718749995-50.98Q 68.23511718749995-48.05  68.23511718749995-43.7L 68.23511718749995-43.7L 68.23511718749995-39.6ZM 102.61464843749998 0L 102.61464843749998-67.24L 112.13464843749999-67.24L 113.25464843749998-60.06L 113.25464843749998-60.01Q 114.72464843749998-62.3  116.40464843749999-63.84Q 118.09464843749998-65.38  119.89464843749998-66.31Q 121.70464843749998-67.24  123.5846484375-67.63Q 125.46464843749999-68.02  127.31464843749998-68.02L 127.31464843749998-68.02Q 133.22464843749998-68.02  136.42464843749997-63.89Q 139.62464843749999-59.77  139.62464843749999-51.51L 139.62464843749999-51.51L 139.62464843749999 0L 127.27464843749999 0L 127.27464843749999-51.07Q 127.27464843749999-55.52  125.90464843749999-57.25Q 124.53464843749998-58.98  121.89464843749998-58.98L 121.89464843749998-58.98Q 120.04464843749999-58.98  118.21464843749999-57.76Q 116.38464843749999-56.54  114.96464843749999-54.39L 114.96464843749999-54.39L 114.96464843749999 0L 102.61464843749998 0ZM 153.8293359375-16.75L 153.8293359375-58.45L 148.6093359375-58.45L 148.6093359375-67.24L 154.9093359375-67.24L 157.3993359375-84.67L 166.1893359375-84.67L 166.1893359375-67.24L 176.9293359375-67.24L 176.9293359375-58.45L 166.1893359375-58.45L 166.1893359375-15.67Q 166.1893359375-13.48  166.5993359375-12.13Q 167.0193359375-10.79  167.7493359375-10.03Q 168.4793359375-9.28  169.4593359375-9.03Q 170.4393359375-8.79  171.5093359375-8.79L 171.5093359375-8.79Q 173.3193359375-8.79  174.7093359375-9.23Q 176.0993359375-9.67  177.3693359375-10.45L 177.3693359375-10.45L 177.3693359375-3.61Q 176.2893359375-2.29  175.0493359375-1.46Q 173.7993359375-0.63  172.48933593750002-0.12Q 171.1693359375 0.39  169.7993359375 0.59Q 168.4293359375 0.78  167.1093359375 0.78L 167.1093359375 0.78Q 164.5293359375 0.78  162.1293359375 0.1Q 159.7393359375-0.59  157.8893359375-2.51Q 156.0293359375-4.44  154.9293359375-7.86Q 153.8293359375-11.28  153.8293359375-16.75L 153.8293359375-16.75ZM 191.9683203125-76.86L 191.9683203125-76.86Q 188.5483203125-76.86  186.5683203125-78.91Q 184.5983203125-80.96  184.5983203125-84.91L 184.5983203125-84.91Q 184.5983203125-87.11  185.1083203125-88.6Q 185.6183203125-90.09  186.5683203125-90.99Q 187.5283203125-91.89  188.8883203125-92.31Q 190.2583203125-92.72  192.0183203125-92.72L 192.0183203125-92.72Q 195.6783203125-92.72  197.5783203125-90.87Q 199.4883203125-89.01  199.4883203125-84.91L 199.4883203125-84.91Q 199.4883203125-81.1  197.5583203125-78.98Q 195.6283203125-76.86  191.9683203125-76.86ZM 185.5683203125 0L 185.5683203125-67.24L 197.9283203125-67.24L 197.9283203125 0L 185.5683203125 0ZM 220.0977734375 0.73L 220.0977734375 0.73Q 216.9677734375 0.73  214.5477734375-0.51Q 212.1377734375-1.76  210.4777734375-3.91Q 208.8177734375-6.05  207.9577734375-9.01Q 207.1077734375-11.96  207.1077734375-15.43L 207.1077734375-15.43Q 207.1077734375-19.58  208.1277734375-22.8Q 209.1577734375-26.03  211.1377734375-28.61Q 213.1077734375-31.2  216.0377734375-33.33Q 218.9677734375-35.45  222.8277734375-37.35L 222.8277734375-37.35Q 224.6777734375-38.28  226.9977734375-39.23Q 229.3177734375-40.19  231.1277734375-40.87L 231.1277734375-40.87L 231.1277734375-49.76Q 231.1277734375-51.71  230.9777734375-53.39Q 230.8377734375-55.08  230.2777734375-56.32Q 229.7077734375-57.57  228.5877734375-58.28Q 227.4677734375-58.98  225.5077734375-58.98L 225.5077734375-58.98Q 224.1977734375-58.98  222.9477734375-58.5Q 221.7077734375-58.01  220.7477734375-56.84Q 219.7977734375-55.66  219.2377734375-53.71Q 218.6777734375-51.76  218.6777734375-48.88L 218.6777734375-48.88L 218.6777734375-45.95L 209.2577734375-45.95Q 208.8177734375-47.85  208.5977734375-49.44Q 208.3777734375-51.03  208.3777734375-52.59L 208.3777734375-52.59Q 208.3777734375-56.35  209.6677734375-59.23Q 210.9577734375-62.11  213.2777734375-64.06Q 215.5977734375-66.02  218.8277734375-67.02Q 222.04777343749998-68.02  225.9077734375-68.02L 225.9077734375-68.02Q 230.9277734375-68.02  234.2577734375-66.92Q 237.5777734375-65.82  239.54777343749998-63.62Q 241.5277734375-61.43  242.3377734375-58.11Q 243.13777343750002-54.79  243.13777343750002-50.34L 243.13777343750002-50.34L 243.13777343750002 0L 233.9577734375 0L 233.0777734375-5.76Q 231.0777734375-2.88  227.7377734375-1.07Q 224.38777343750002 0.73  220.0977734375 0.73ZM 225.5577734375-8.79L 225.5577734375-8.79Q 227.1277734375-8.79  228.6177734375-9.59Q 230.0977734375-10.4  231.1277734375-11.57L 231.1277734375-11.57L 231.1277734375-32.62Q 230.1477734375-32.23  228.9277734375-31.69Q 227.7077734375-31.15  226.29777343749998-30.27L 226.29777343749998-30.27Q 224.9777734375-29.44  223.7077734375-28.27Q 222.4377734375-27.1  221.4377734375-25.49Q 220.4377734375-23.88  219.8277734375-21.85Q 219.2177734375-19.82  219.2177734375-17.33L 219.2177734375-17.33Q 219.2177734375-13.48  220.7277734375-11.13Q 222.2377734375-8.79  225.5577734375-8.79Z"
                  fill="url('#text')" ></path>
        </g>
    </svg>
</svg>
